<?xml version="1.0" encoding="utf-8"?>
<!-- Generator: Adobe Illustrator 16.0.0, SVG Export Plug-In . SVG Version: 6.00 Build 0)  -->
<!DOCTYPE svg PUBLIC "-//W3C//DTD SVG 1.1//EN" "http://www.w3.org/Graphics/SVG/1.1/DTD/svg11.dtd">
<svg version="1.1" id="Calque_1" xmlns="http://www.w3.org/2000/svg" xmlns:xlink="http://www.w3.org/1999/xlink" x="0px" y="0px"
	 width="425.2px" height="425.2px" viewBox="0 0 425.2 425.2" enable-background="new 0 0 425.2 425.2" xml:space="preserve">
<path fill="none" stroke="#010202" stroke-width="7" stroke-linecap="round" stroke-linejoin="round" stroke-miterlimit="10" d="
	M173.622,278.068"/>
<path fill="none" stroke="#010202" stroke-width="7" stroke-linecap="round" stroke-linejoin="round" stroke-miterlimit="10" d="
	M165.964,239.276"/>
<path fill="none" stroke="#010202" stroke-width="7" stroke-linecap="round" stroke-linejoin="round" stroke-miterlimit="10" d="
	M207.354,149.194"/>
<path fill="none" stroke="#010202" stroke-width="7" stroke-linecap="round" stroke-linejoin="round" stroke-miterlimit="10" d="
	M182.528,216.469l6.942-18.811"/>
<path fill="none" stroke="#010202" stroke-width="7" stroke-linecap="round" stroke-linejoin="round" stroke-miterlimit="10" d="
	M207.354,149.194l14.143-38.324c2.295-6.217,9.194-9.397,15.412-7.104l100.383,37.043c6.217,2.294,9.398,9.195,7.105,15.412
	l-50.893,137.91c-2.295,6.217-9.194,9.396-15.412,7.104l-31.006-11.441"/>
<line fill="none" stroke="#010202" stroke-width="7" stroke-linecap="round" stroke-linejoin="round" stroke-miterlimit="10" x1="234.411" y1="139.42" x2="317.907" y2="170.231"/>
<line fill="none" stroke="#010202" stroke-width="7" stroke-linecap="round" stroke-linejoin="round" stroke-miterlimit="10" x1="227.249" y1="158.827" x2="310.745" y2="189.638"/>
<line fill="none" stroke="#010202" stroke-width="7" stroke-linecap="round" stroke-linejoin="round" stroke-miterlimit="10" x1="220.325" y1="177.59" x2="303.821" y2="208.401"/>
<line fill="none" stroke="#010202" stroke-width="7" stroke-linecap="round" stroke-linejoin="round" stroke-miterlimit="10" x1="213.055" y1="197.291" x2="296.551" y2="228.103"/>
<path fill="none" stroke="#000000" stroke-width="10" stroke-linecap="round" stroke-linejoin="round" stroke-miterlimit="10" d="
	M251.195,310.874c0-44.574-33.337-96.33-74.461-96.33c-41.123,0-74.459,51.756-74.459,96.33H251.195z"/>
<circle fill="none" stroke="#000000" stroke-width="10" stroke-linecap="round" stroke-linejoin="round" stroke-miterlimit="10" cx="176.735" cy="166.119" r="32.804"/>
</svg>
