<?xml version="1.0" encoding="utf-8"?>
<!-- Generator: Adobe Illustrator 16.0.0, SVG Export Plug-In . SVG Version: 6.00 Build 0)  -->
<!DOCTYPE svg PUBLIC "-//W3C//DTD SVG 1.1//EN" "http://www.w3.org/Graphics/SVG/1.1/DTD/svg11.dtd">
<svg version="1.1" id="Calque_1" xmlns="http://www.w3.org/2000/svg" xmlns:xlink="http://www.w3.org/1999/xlink" x="0px" y="0px"
	 width="425.2px" height="425.2px" viewBox="0 0 425.2 425.2" enable-background="new 0 0 425.2 425.2" xml:space="preserve">
<path fill="none" stroke="#000000" stroke-width="10" stroke-miterlimit="10" d="M203.813,93.795l23.333-37.836
	c4.464-7.239,13.948-9.487,21.187-5.024l97.191,59.935c7.238,4.463,9.486,13.949,5.023,21.186l-98.086,159.061"/>
<path fill="none" stroke="#000000" stroke-width="10" stroke-miterlimit="10" d="M145.253,116.98l5.503-23.523
	c1.937-8.279,10.219-13.42,18.499-11.484l111.185,26.011c8.277,1.936,13.42,10.219,11.484,18.498l-49.1,209.876
	c-0.809,3.454-2.723,6.363-5.279,8.439"/>
<path fill="none" stroke="#000000" stroke-width="10" stroke-miterlimit="10" d="M237.543,350.604
	c0,8.503-6.894,15.396-15.396,15.396H107.961c-8.503,0-15.396-6.895-15.396-15.396V135.062c0-8.503,6.893-15.396,15.396-15.396
	h114.185c8.504,0,15.396,6.893,15.396,15.396v215.542H237.543z"/>
<path fill="none" stroke="#000000" stroke-width="5" stroke-linecap="round" stroke-linejoin="round" stroke-miterlimit="10" d="
	M162.216,262.616c-13.939-7.259-31.479-23.13-23.302-40.877c0.9-1.688,2.679-4.205,4.412-5.015c1.733-0.81,4.297-0.742,6.007-0.694
	c5.107,0.992,8.435,4.504,11.779,8.418"/>
<path fill="none" stroke="#000000" stroke-width="5" stroke-linecap="round" stroke-linejoin="round" stroke-miterlimit="10" d="
	M161.875,224.77c3.234-4.005,6.463-7.607,11.541-8.741c1.708-0.093,4.27-0.233,6.024,0.527c1.755,0.76,3.603,3.229,4.55,4.892
	c8.666,17.514-7.574,33.863-21.305,41.506"/>
</svg>
